<svg xmlns="http://www.w3.org/2000/svg" xmlns:xlink="http://www.w3.org/1999/xlink" width="500" zoomAndPan="magnify" viewBox="0 0 375 74.999997" height="100" preserveAspectRatio="xMidYMid meet" version="1.0"><defs><g/><clipPath id="71a912aed8"><path d="M 42.074219 0 L 114.824219 0 L 114.824219 72.75 L 42.074219 72.75 Z M 42.074219 0 " clip-rule="nonzero"/></clipPath></defs><g fill="#ffffff" fill-opacity="1"><g transform="translate(118.494882, 49.151497)"><g><path d="M 16.539062 0.523438 C 23.367188 0.523438 28.90625 -3.613281 30.59375 -9.875 L 26.859375 -9.875 C 25.414062 -5.660156 21.4375 -3.011719 16.660156 -3.011719 C 10.398438 -3.011719 5.941406 -7.546875 5.941406 -14.050781 C 5.941406 -20.554688 10.398438 -25.09375 16.660156 -25.09375 C 21.320312 -25.09375 25.132812 -22.601562 26.578125 -18.546875 L 30.351562 -18.546875 C 28.503906 -24.730469 23.164062 -28.625 16.539062 -28.625 C 8.269531 -28.625 2.328125 -22.523438 2.328125 -14.050781 C 2.328125 -5.582031 8.269531 0.523438 16.539062 0.523438 Z M 16.539062 0.523438 "/></g></g></g><g fill="#ffffff" fill-opacity="1"><g transform="translate(151.251198, 49.151497)"><g><path d="M 3.734375 0 L 7.105469 0 L 7.105469 -20.835938 L 3.734375 -20.835938 Z M 2.691406 -26.898438 C 2.691406 -25.414062 3.773438 -24.289062 5.421875 -24.289062 C 7.066406 -24.289062 8.109375 -25.414062 8.109375 -26.898438 C 8.109375 -28.425781 7.066406 -29.546875 5.421875 -29.546875 C 3.773438 -29.546875 2.691406 -28.425781 2.691406 -26.898438 Z M 2.691406 -26.898438 "/></g></g></g><g fill="#ffffff" fill-opacity="1"><g transform="translate(162.089691, 49.151497)"><g><path d="M 3.734375 0 L 7.105469 0 L 7.105469 -9.675781 C 7.105469 -15.617188 10.078125 -17.707031 13.851562 -17.707031 L 15.898438 -17.707031 L 15.898438 -20.835938 L 14.011719 -20.835938 C 10.480469 -20.835938 8.390625 -19.710938 6.90625 -17.222656 L 6.503906 -20.835938 L 3.734375 -20.835938 Z M 3.734375 0 "/></g></g></g><g fill="#ffffff" fill-opacity="1"><g transform="translate(179.591845, 49.151497)"><g><path d="M 12.808594 0.523438 C 18.027344 0.523438 22.082031 -2.609375 23.488281 -7.667969 L 19.914062 -7.667969 C 18.871094 -4.65625 16.179688 -2.730469 12.808594 -2.730469 C 8.511719 -2.730469 5.460938 -5.902344 5.460938 -10.4375 C 5.460938 -14.933594 8.511719 -18.148438 12.808594 -18.148438 C 15.980469 -18.148438 18.589844 -16.421875 19.832031 -13.53125 L 23.246094 -13.53125 C 22.203125 -18.226562 17.984375 -21.359375 12.808594 -21.359375 C 6.542969 -21.359375 2.085938 -16.78125 2.085938 -10.4375 C 2.085938 -4.054688 6.542969 0.523438 12.808594 0.523438 Z M 12.808594 0.523438 "/></g></g></g><g fill="#ffffff" fill-opacity="1"><g transform="translate(205.042216, 49.151497)"><g><path d="M 3.734375 0 L 7.105469 0 L 7.105469 -29.710938 L 3.734375 -29.710938 Z M 3.734375 0 "/></g></g></g><g fill="#ffffff" fill-opacity="1"><g transform="translate(215.880709, 49.151497)"><g><path d="M 12.765625 0.523438 C 17.464844 0.523438 21.320312 -2.007812 23.003906 -6.0625 L 19.191406 -6.0625 C 17.90625 -3.855469 15.539062 -2.648438 12.808594 -2.648438 C 8.832031 -2.648438 6.023438 -5.140625 5.5 -9.074219 L 23.527344 -9.074219 C 23.765625 -16.339844 19.472656 -21.359375 12.808594 -21.359375 C 6.503906 -21.359375 2.085938 -16.863281 2.085938 -10.4375 C 2.085938 -3.976562 6.464844 0.523438 12.765625 0.523438 Z M 5.539062 -12.042969 C 6.144531 -15.738281 8.953125 -18.1875 12.808594 -18.1875 C 16.621094 -18.1875 19.429688 -15.859375 20.152344 -12.042969 Z M 5.539062 -12.042969 "/></g></g></g><g fill="#ffffff" fill-opacity="1"><g transform="translate(241.411374, 49.151497)"><g><path d="M 22.523438 0 L 26.054688 0 L 26.054688 -28.101562 L 22.523438 -28.101562 L 22.523438 -16.019531 L 7.628906 -16.019531 L 7.628906 -28.101562 L 4.09375 -28.101562 L 4.09375 0 L 7.628906 0 L 7.628906 -12.648438 L 22.523438 -12.648438 Z M 22.523438 0 "/></g></g></g><g fill="#ffffff" fill-opacity="1"><g transform="translate(271.558426, 49.151497)"><g><path d="M 12.042969 0.523438 C 14.816406 0.523438 17.503906 -0.601562 19.3125 -3.050781 L 19.671875 0 L 22.441406 0 L 22.441406 -20.835938 L 19.070312 -20.835938 L 19.070312 -10.316406 C 19.070312 -5.78125 16.378906 -2.730469 12.484375 -2.730469 C 8.914062 -2.730469 6.703125 -5.378906 6.703125 -9.554688 L 6.703125 -20.835938 L 3.332031 -20.835938 L 3.332031 -9.234375 C 3.332031 -3.292969 6.585938 0.523438 12.042969 0.523438 Z M 12.042969 0.523438 "/></g></g></g><g fill="#ffffff" fill-opacity="1"><g transform="translate(297.731363, 49.151497)"><g><path d="M 15.09375 0.523438 C 21.238281 0.523438 25.695312 -4.09375 25.695312 -10.4375 C 25.695312 -16.742188 21.238281 -21.359375 15.09375 -21.359375 C 11.804688 -21.359375 8.992188 -20.035156 7.105469 -17.867188 L 7.105469 -29.710938 L 3.734375 -29.710938 L 3.734375 0 L 6.503906 0 L 6.90625 -3.210938 C 8.792969 -0.882812 11.683594 0.523438 15.09375 0.523438 Z M 6.984375 -10.4375 C 6.984375 -14.933594 10.15625 -18.148438 14.652344 -18.148438 C 19.191406 -18.148438 22.320312 -14.933594 22.320312 -10.4375 C 22.320312 -5.902344 19.191406 -2.730469 14.652344 -2.730469 C 10.15625 -2.730469 6.984375 -5.902344 6.984375 -10.4375 Z M 6.984375 -10.4375 "/></g></g></g><g clip-path="url(#71a912aed8)"><path fill="#5114cb" d="M 64.339844 63.863281 C 63.84375 63.617188 63.507812 63.089844 63.507812 62.507812 C 63.507812 58.390625 65.195312 54.652344 67.890625 51.945312 C 68.296875 51.539062 68.777344 51.113281 69.242188 50.738281 C 69.882812 51.539062 70.40625 52.425781 70.785156 53.355469 C 70.507812 53.574219 70.261719 53.820312 70.015625 54.070312 C 68.019531 56.0625 66.726562 58.726562 66.535156 61.679688 C 67.800781 62.394531 68.777344 62.84375 69.707031 62.976562 C 70.597656 63.089844 71.585938 62.917969 72.910156 62.453125 L 72.910156 57.402344 C 72.910156 54.113281 71.554688 51.113281 69.375 48.960938 C 67.21875 46.777344 64.238281 45.453125 60.960938 45.453125 C 58.285156 45.453125 55.824219 46.34375 53.847656 47.796875 C 51.96875 49.207031 50.515625 51.128906 49.714844 53.371094 C 51.152344 55.773438 52.886719 58.011719 54.851562 59.992188 C 60.890625 66.03125 69.257812 69.757812 78.46875 69.757812 C 80.679688 69.757812 82.847656 69.539062 85.003906 69.085938 C 86.851562 68.722656 88.640625 68.199219 90.417969 67.542969 L 90.417969 62.496094 C 90.417969 59.207031 89.0625 56.238281 86.878906 54.054688 C 84.726562 51.902344 81.742188 50.546875 78.46875 50.546875 C 77.550781 50.546875 76.679688 50.664062 75.820312 50.851562 C 75.414062 49.894531 74.902344 48.976562 74.308594 48.144531 C 75.632812 47.753906 77.011719 47.535156 78.46875 47.535156 C 80.78125 47.535156 82.996094 48.089844 84.960938 49.019531 C 86.195312 47.199219 87.824219 45.6875 89.703125 44.550781 C 91.945312 43.199219 94.5625 42.425781 97.34375 42.425781 C 100.328125 42.425781 103.136719 43.316406 105.476562 44.859375 C 107.019531 45.875 108.402344 47.171875 109.480469 48.699219 C 110.992188 44.84375 111.824219 40.636719 111.824219 36.359375 C 111.824219 27.148438 108.097656 18.808594 102.058594 12.769531 C 96.019531 6.730469 87.679688 3.003906 78.46875 3.003906 C 69.257812 3.003906 60.890625 6.746094 54.851562 12.785156 C 48.8125 18.824219 45.085938 27.160156 45.085938 36.375 C 45.085938 41.234375 46.132812 45.832031 47.980469 50.007812 C 49 48.21875 50.410156 46.648438 52.070312 45.394531 C 54.589844 43.546875 57.644531 42.441406 60.976562 42.441406 C 65.09375 42.441406 68.804688 44.128906 71.511719 46.820312 C 74.21875 49.515625 75.894531 53.285156 75.894531 57.386719 L 75.894531 63.457031 C 75.894531 64.097656 75.484375 64.664062 74.902344 64.867188 C 72.617188 65.796875 70.988281 66.132812 69.328125 65.914062 C 67.730469 65.726562 66.304688 65.011719 64.339844 63.863281 Z M 60.976562 26.144531 C 62.882812 26.144531 64.585938 26.914062 65.835938 28.136719 C 67.074219 29.375 67.84375 31.121094 67.84375 32.996094 C 67.84375 34.902344 67.074219 36.605469 65.835938 37.859375 C 64.601562 39.09375 62.882812 39.867188 60.976562 39.867188 C 59.101562 39.867188 57.367188 39.09375 56.117188 37.859375 C 54.878906 36.621094 54.121094 34.902344 54.121094 32.996094 C 54.121094 31.121094 54.863281 29.386719 56.117188 28.136719 C 57.351562 26.914062 59.101562 26.144531 60.976562 26.144531 Z M 63.710938 30.246094 C 63.027344 29.5625 62.054688 29.140625 60.976562 29.140625 C 59.929688 29.140625 58.96875 29.546875 58.242188 30.246094 C 57.558594 30.960938 57.105469 31.933594 57.105469 32.984375 C 57.105469 34.058594 57.542969 35.019531 58.242188 35.71875 C 58.953125 36.402344 59.929688 36.855469 60.976562 36.855469 C 62.054688 36.855469 63.015625 36.417969 63.710938 35.71875 C 64.410156 35.019531 64.847656 34.058594 64.847656 32.984375 C 64.832031 31.933594 64.398438 30.960938 63.710938 30.246094 Z M 95.929688 26.144531 C 97.839844 26.144531 99.539062 26.914062 100.792969 28.136719 C 102.027344 29.375 102.785156 31.121094 102.785156 32.996094 C 102.785156 34.902344 102.042969 36.605469 100.792969 37.859375 C 99.554688 39.09375 97.839844 39.867188 95.929688 39.867188 C 94.023438 39.867188 92.324219 39.09375 91.070312 37.859375 C 89.835938 36.621094 89.0625 34.902344 89.0625 32.996094 C 89.0625 31.121094 89.835938 29.386719 91.070312 28.136719 C 92.324219 26.914062 94.023438 26.144531 95.929688 26.144531 Z M 98.667969 30.246094 C 97.953125 29.5625 96.980469 29.140625 95.929688 29.140625 C 94.855469 29.140625 93.894531 29.546875 93.195312 30.246094 C 92.511719 30.960938 92.0625 31.933594 92.0625 32.984375 C 92.0625 34.058594 92.496094 35.019531 93.195312 35.71875 C 93.894531 36.417969 94.855469 36.855469 95.929688 36.855469 C 96.980469 36.855469 97.941406 36.417969 98.667969 35.71875 C 99.351562 35.035156 99.800781 34.058594 99.800781 32.984375 C 99.800781 31.933594 99.351562 30.960938 98.667969 30.246094 Z M 78.46875 31.132812 C 80.347656 31.132812 82.046875 31.90625 83.300781 33.144531 C 84.539062 34.378906 85.308594 36.097656 85.308594 38.003906 C 85.308594 39.878906 84.539062 41.582031 83.300781 42.835938 C 82.0625 44.070312 80.347656 44.84375 78.46875 44.84375 C 76.5625 44.84375 74.859375 44.070312 73.609375 42.835938 C 72.371094 41.597656 71.601562 39.878906 71.601562 38.003906 C 71.601562 36.097656 72.371094 34.394531 73.609375 33.144531 C 74.859375 31.90625 76.5625 31.132812 78.46875 31.132812 Z M 81.175781 35.269531 C 80.492188 34.582031 79.515625 34.132812 78.46875 34.132812 C 77.390625 34.132812 76.429688 34.570312 75.734375 35.269531 C 75.019531 35.953125 74.597656 36.925781 74.597656 38.003906 C 74.597656 39.050781 75.003906 40.011719 75.734375 40.710938 C 76.417969 41.421875 77.390625 41.84375 78.46875 41.84375 C 79.515625 41.84375 80.476562 41.4375 81.175781 40.710938 C 81.886719 40.027344 82.3125 39.050781 82.3125 38.003906 C 82.3125 36.925781 81.886719 35.964844 81.175781 35.269531 Z M 87.492188 50.605469 C 88.042969 51.011719 88.539062 51.464844 89.003906 51.929688 C 91.710938 54.636719 93.386719 58.390625 93.386719 62.496094 L 93.386719 68.5625 C 93.386719 69.246094 92.949219 69.828125 92.308594 70.003906 C 90.125 70.921875 87.871094 71.574219 85.597656 72.042969 C 83.257812 72.507812 80.855469 72.753906 78.453125 72.753906 C 68.382812 72.753906 59.304688 68.664062 52.710938 62.101562 C 46.164062 55.523438 42.074219 46.445312 42.074219 36.375 C 42.074219 26.332031 46.164062 17.25 52.726562 10.660156 C 59.316406 4.097656 68.398438 0.0078125 78.46875 0.0078125 C 88.511719 0.0078125 97.589844 4.097656 104.183594 10.660156 C 110.746094 17.25 114.835938 26.332031 114.835938 36.375 C 114.835938 42.0625 113.511719 47.578125 111.050781 52.542969 C 110.992188 52.628906 110.964844 52.703125 110.921875 52.789062 C 110.804688 52.976562 110.730469 53.179688 110.613281 53.371094 C 107.90625 58.535156 103.933594 63.035156 98.972656 66.425781 C 98.289062 66.890625 97.371094 66.699219 96.90625 66.03125 C 96.441406 65.347656 96.601562 64.402344 97.300781 63.9375 C 101.855469 60.820312 105.492188 56.703125 107.980469 51.960938 C 107.050781 50.109375 105.609375 48.511719 103.863281 47.375 C 101.984375 46.167969 99.746094 45.441406 97.359375 45.441406 C 95.117188 45.441406 93.019531 46.050781 91.261719 47.128906 C 89.746094 48.015625 88.480469 49.207031 87.492188 50.605469 Z M 87.492188 50.605469 " fill-opacity="1" fill-rule="nonzero"/></g></svg>