<svg xmlns="http://www.w3.org/2000/svg" xmlns:xlink="http://www.w3.org/1999/xlink" width="500" zoomAndPan="magnify" viewBox="0 0 375 374.999991" height="500" preserveAspectRatio="xMidYMid meet" version="1.0"><defs><clipPath id="f32b1ea7f7"><path d="M 65.078125 54.390625 L 309.578125 54.390625 L 309.578125 298.890625 L 65.078125 298.890625 Z M 65.078125 54.390625 " clip-rule="nonzero"/></clipPath></defs><g clip-path="url(#f32b1ea7f7)"><path fill="#5114cb" d="M 139.996094 269.289062 C 138.332031 268.457031 137.207031 266.691406 137.207031 264.734375 C 137.207031 250.875 142.886719 238.292969 151.945312 229.183594 C 153.316406 227.8125 154.933594 226.390625 156.5 225.121094 C 158.65625 227.8125 160.417969 230.800781 161.691406 233.933594 C 160.761719 234.667969 159.929688 235.5 159.09375 236.332031 C 152.386719 243.042969 148.027344 252.003906 147.390625 261.941406 C 151.652344 264.34375 154.933594 265.859375 158.066406 266.300781 C 161.054688 266.691406 164.382812 266.105469 168.839844 264.539062 L 168.839844 247.546875 C 168.839844 236.480469 164.285156 226.390625 156.941406 219.144531 C 149.695312 211.800781 139.65625 207.34375 128.636719 207.34375 C 119.628906 207.34375 111.351562 210.332031 104.691406 215.226562 C 98.375 219.976562 93.476562 226.441406 90.785156 233.980469 C 95.632812 242.0625 101.460938 249.601562 108.070312 256.261719 C 128.390625 276.585938 156.550781 289.121094 187.546875 289.121094 C 194.988281 289.121094 202.285156 288.386719 209.53125 286.867188 C 215.75 285.644531 221.773438 283.878906 227.75 281.675781 L 227.75 264.683594 C 227.75 253.617188 223.195312 243.628906 215.847656 236.285156 C 208.601562 229.035156 198.5625 224.484375 187.546875 224.484375 C 184.460938 224.484375 181.523438 224.875 178.632812 225.511719 C 177.261719 222.277344 175.546875 219.195312 173.542969 216.402344 C 177.996094 215.082031 182.648438 214.347656 187.546875 214.347656 C 195.332031 214.347656 202.773438 216.207031 209.386719 219.339844 C 213.546875 213.21875 219.03125 208.128906 225.347656 204.308594 C 232.890625 199.753906 241.703125 197.160156 251.058594 197.160156 C 261.097656 197.160156 270.546875 200.144531 278.429688 205.335938 C 283.621094 208.765625 288.273438 213.121094 291.898438 218.261719 C 296.988281 205.289062 299.78125 191.136719 299.78125 176.738281 C 299.78125 145.742188 287.246094 117.683594 266.921875 97.363281 C 246.601562 77.039062 218.542969 64.503906 187.546875 64.503906 C 156.550781 64.503906 128.390625 77.089844 108.070312 97.410156 C 87.75 117.734375 75.214844 145.792969 75.214844 176.789062 C 75.214844 193.144531 78.738281 208.617188 84.957031 222.671875 C 88.386719 216.648438 93.136719 211.359375 98.71875 207.148438 C 107.1875 200.929688 117.472656 197.207031 128.6875 197.207031 C 142.542969 197.207031 155.03125 202.886719 164.140625 211.945312 C 173.246094 221.007812 178.878906 233.6875 178.878906 247.496094 L 178.878906 267.917969 C 178.878906 270.070312 177.507812 271.980469 175.546875 272.667969 C 167.859375 275.800781 162.375 276.925781 156.792969 276.191406 C 151.40625 275.554688 146.609375 273.15625 139.996094 269.289062 Z M 128.6875 142.363281 C 135.101562 142.363281 140.832031 144.957031 145.042969 149.070312 C 149.203125 153.234375 151.800781 159.109375 151.800781 165.425781 C 151.800781 171.84375 149.203125 177.570312 145.042969 181.78125 C 140.878906 185.945312 135.101562 188.539062 128.6875 188.539062 C 122.371094 188.539062 116.542969 185.945312 112.332031 181.78125 C 108.167969 177.621094 105.621094 171.84375 105.621094 165.425781 C 105.621094 159.109375 108.121094 153.285156 112.332031 149.070312 C 116.492188 144.957031 122.371094 142.363281 128.6875 142.363281 Z M 137.890625 156.171875 C 135.589844 153.871094 132.308594 152.449219 128.6875 152.449219 C 125.160156 152.449219 121.929688 153.820312 119.480469 156.171875 C 117.179688 158.570312 115.660156 161.851562 115.660156 165.378906 C 115.660156 169 117.128906 172.234375 119.480469 174.585938 C 121.878906 176.886719 125.160156 178.402344 128.6875 178.402344 C 132.308594 178.402344 135.542969 176.933594 137.890625 174.585938 C 140.242188 172.234375 141.710938 169 141.710938 165.378906 C 141.664062 161.851562 140.195312 158.570312 137.890625 156.171875 Z M 246.308594 142.363281 C 252.722656 142.363281 258.453125 144.957031 262.664062 149.070312 C 266.824219 153.234375 269.371094 159.109375 269.371094 165.425781 C 269.371094 171.84375 266.875 177.570312 262.664062 181.78125 C 258.5 185.945312 252.722656 188.539062 246.308594 188.539062 C 239.894531 188.539062 234.164062 185.945312 229.953125 181.78125 C 225.789062 177.621094 223.195312 171.84375 223.195312 165.425781 C 223.195312 159.109375 225.789062 153.285156 229.953125 149.070312 C 234.164062 144.957031 239.894531 142.363281 246.308594 142.363281 Z M 255.511719 156.171875 C 253.113281 153.871094 249.832031 152.449219 246.308594 152.449219 C 242.683594 152.449219 239.453125 153.820312 237.101562 156.171875 C 234.800781 158.570312 233.28125 161.851562 233.28125 165.378906 C 233.28125 169 234.75 172.234375 237.101562 174.585938 C 239.453125 176.933594 242.683594 178.402344 246.308594 178.402344 C 249.832031 178.402344 253.066406 176.933594 255.511719 174.585938 C 257.816406 172.28125 259.332031 169 259.332031 165.378906 C 259.332031 161.851562 257.816406 158.570312 255.511719 156.171875 Z M 187.546875 159.160156 C 193.863281 159.160156 199.59375 161.753906 203.804688 165.917969 C 207.964844 170.078125 210.5625 175.859375 210.5625 182.273438 C 210.5625 188.589844 207.964844 194.320312 203.804688 198.53125 C 199.640625 202.691406 193.863281 205.289062 187.546875 205.289062 C 181.132812 205.289062 175.402344 202.691406 171.191406 198.53125 C 167.027344 194.367188 164.433594 188.589844 164.433594 182.273438 C 164.433594 175.859375 167.027344 170.128906 171.191406 165.917969 C 175.402344 161.753906 181.132812 159.160156 187.546875 159.160156 Z M 196.652344 173.066406 C 194.351562 170.765625 191.070312 169.246094 187.546875 169.246094 C 183.921875 169.246094 180.691406 170.714844 178.339844 173.066406 C 175.941406 175.367188 174.519531 178.648438 174.519531 182.273438 C 174.519531 185.796875 175.890625 189.03125 178.339844 191.378906 C 180.640625 193.78125 183.921875 195.199219 187.546875 195.199219 C 191.070312 195.199219 194.304688 193.828125 196.652344 191.378906 C 199.054688 189.078125 200.472656 185.796875 200.472656 182.273438 C 200.472656 178.648438 199.054688 175.417969 196.652344 173.066406 Z M 217.90625 224.679688 C 219.765625 226.050781 221.433594 227.566406 223 229.132812 C 232.105469 238.242188 237.738281 250.875 237.738281 264.683594 L 237.738281 285.105469 C 237.738281 287.40625 236.269531 289.363281 234.113281 289.953125 C 226.769531 293.039062 219.179688 295.242188 211.539062 296.808594 C 203.65625 298.375 195.578125 299.207031 187.496094 299.207031 C 153.609375 299.207031 123.054688 285.449219 100.871094 263.363281 C 78.835938 241.230469 65.078125 210.671875 65.078125 176.789062 C 65.078125 143 78.835938 112.445312 100.921875 90.261719 C 123.105469 68.175781 153.660156 54.417969 187.546875 54.417969 C 221.332031 54.417969 251.890625 68.175781 274.070312 90.261719 C 296.15625 112.445312 309.917969 143 309.917969 176.789062 C 309.917969 195.933594 305.460938 214.492188 297.183594 231.191406 C 296.988281 231.484375 296.890625 231.730469 296.746094 232.023438 C 296.351562 232.660156 296.109375 233.347656 295.714844 233.984375 C 286.609375 251.367188 273.238281 266.496094 256.542969 277.90625 C 254.238281 279.472656 251.15625 278.835938 249.589844 276.585938 C 248.019531 274.28125 248.558594 271.101562 250.910156 269.53125 C 266.238281 259.054688 278.480469 245.195312 286.851562 229.234375 C 283.71875 223.011719 278.871094 217.628906 272.996094 213.808594 C 266.679688 209.742188 259.136719 207.292969 251.105469 207.292969 C 243.566406 207.292969 236.515625 209.351562 230.589844 212.976562 C 225.496094 215.960938 221.234375 219.976562 217.90625 224.679688 Z M 217.90625 224.679688 " fill-opacity="1" fill-rule="nonzero"/></g></svg>