<svg xmlns="http://www.w3.org/2000/svg" xmlns:xlink="http://www.w3.org/1999/xlink" width="500" zoomAndPan="magnify" viewBox="0 0 375 374.999991" height="500" preserveAspectRatio="xMidYMid meet" version="1.0"><defs><g/><clipPath id="dd5b8c01df"><path d="M 7.816406 130.152344 L 97.816406 130.152344 L 97.816406 220.152344 L 7.816406 220.152344 Z M 7.816406 130.152344 " clip-rule="nonzero"/></clipPath></defs><g fill="#000932" fill-opacity="1"><g transform="translate(102.239121, 190.884153)"><g><path d="M 20.4375 0.644531 C 28.871094 0.644531 35.714844 -4.464844 37.800781 -12.203125 L 33.1875 -12.203125 C 31.398438 -6.996094 26.488281 -3.71875 20.585938 -3.71875 C 12.847656 -3.71875 7.339844 -9.324219 7.339844 -17.363281 C 7.339844 -25.398438 12.847656 -31.003906 20.585938 -31.003906 C 26.339844 -31.003906 31.054688 -27.929688 32.839844 -22.917969 L 37.5 -22.917969 C 35.21875 -30.558594 28.621094 -35.367188 20.4375 -35.367188 C 10.21875 -35.367188 2.878906 -27.828125 2.878906 -17.363281 C 2.878906 -6.894531 10.21875 0.644531 20.4375 0.644531 Z M 20.4375 0.644531 "/></g></g></g><g fill="#000932" fill-opacity="1"><g transform="translate(142.711948, 190.884153)"><g><path d="M 4.613281 0 L 8.78125 0 L 8.78125 -25.746094 L 4.613281 -25.746094 Z M 3.324219 -33.234375 C 3.324219 -31.398438 4.664062 -30.011719 6.695312 -30.011719 C 8.730469 -30.011719 10.019531 -31.398438 10.019531 -33.234375 C 10.019531 -35.121094 8.730469 -36.507812 6.695312 -36.507812 C 4.664062 -36.507812 3.324219 -35.121094 3.324219 -33.234375 Z M 3.324219 -33.234375 "/></g></g></g><g fill="#000932" fill-opacity="1"><g transform="translate(156.1037, 190.884153)"><g><path d="M 4.613281 0 L 8.78125 0 L 8.78125 -11.953125 C 8.78125 -19.296875 12.449219 -21.875 17.113281 -21.875 L 19.644531 -21.875 L 19.644531 -25.746094 L 17.3125 -25.746094 C 12.945312 -25.746094 10.367188 -24.355469 8.53125 -21.28125 L 8.035156 -25.746094 L 4.613281 -25.746094 Z M 4.613281 0 "/></g></g></g><g fill="#000932" fill-opacity="1"><g transform="translate(177.728893, 190.884153)"><g><path d="M 15.824219 0.644531 C 22.273438 0.644531 27.28125 -3.222656 29.019531 -9.476562 L 24.605469 -9.476562 C 23.316406 -5.753906 19.992188 -3.375 15.824219 -3.375 C 10.515625 -3.375 6.746094 -7.292969 6.746094 -12.898438 C 6.746094 -18.453125 10.515625 -22.421875 15.824219 -22.421875 C 19.742188 -22.421875 22.96875 -20.289062 24.503906 -16.71875 L 28.722656 -16.71875 C 27.433594 -22.519531 22.222656 -26.390625 15.824219 -26.390625 C 8.085938 -26.390625 2.578125 -20.734375 2.578125 -12.898438 C 2.578125 -5.011719 8.085938 0.644531 15.824219 0.644531 Z M 15.824219 0.644531 "/></g></g></g><g fill="#000932" fill-opacity="1"><g transform="translate(209.17469, 190.884153)"><g><path d="M 4.613281 0 L 8.78125 0 L 8.78125 -36.707031 L 4.613281 -36.707031 Z M 4.613281 0 "/></g></g></g><g fill="#000932" fill-opacity="1"><g transform="translate(222.566442, 190.884153)"><g><path d="M 15.773438 0.644531 C 21.578125 0.644531 26.339844 -2.480469 28.425781 -7.492188 L 23.710938 -7.492188 C 22.125 -4.761719 19.199219 -3.273438 15.824219 -3.273438 C 10.914062 -3.273438 7.441406 -6.347656 6.796875 -11.210938 L 29.070312 -11.210938 C 29.367188 -20.1875 24.058594 -26.390625 15.824219 -26.390625 C 8.035156 -26.390625 2.578125 -20.835938 2.578125 -12.898438 C 2.578125 -4.910156 7.988281 0.644531 15.773438 0.644531 Z M 6.84375 -14.882812 C 7.589844 -19.445312 11.0625 -22.472656 15.824219 -22.472656 C 20.535156 -22.472656 24.007812 -19.59375 24.902344 -14.882812 Z M 6.84375 -14.882812 "/></g></g></g><g fill="#000932" fill-opacity="1"><g transform="translate(254.111448, 190.884153)"><g><path d="M 27.828125 0 L 32.195312 0 L 32.195312 -34.722656 L 27.828125 -34.722656 L 27.828125 -19.792969 L 9.425781 -19.792969 L 9.425781 -34.722656 L 5.058594 -34.722656 L 5.058594 0 L 9.425781 0 L 9.425781 -15.625 L 27.828125 -15.625 Z M 27.828125 0 "/></g></g></g><g fill="#000932" fill-opacity="1"><g transform="translate(291.360338, 190.884153)"><g><path d="M 14.882812 0.644531 C 18.304688 0.644531 21.628906 -0.742188 23.859375 -3.769531 L 24.304688 0 L 27.730469 0 L 27.730469 -25.746094 L 23.5625 -25.746094 L 23.5625 -12.75 C 23.5625 -7.144531 20.238281 -3.375 15.425781 -3.375 C 11.011719 -3.375 8.285156 -6.648438 8.285156 -11.804688 L 8.285156 -25.746094 L 4.117188 -25.746094 L 4.117188 -11.410156 C 4.117188 -4.066406 8.136719 0.644531 14.882812 0.644531 Z M 14.882812 0.644531 "/></g></g></g><g fill="#000932" fill-opacity="1"><g transform="translate(323.698918, 190.884153)"><g><path d="M 18.652344 0.644531 C 26.242188 0.644531 31.746094 -5.058594 31.746094 -12.898438 C 31.746094 -20.683594 26.242188 -26.390625 18.652344 -26.390625 C 14.582031 -26.390625 11.113281 -24.753906 8.78125 -22.074219 L 8.78125 -36.707031 L 4.613281 -36.707031 L 4.613281 0 L 8.035156 0 L 8.53125 -3.96875 C 10.863281 -1.089844 14.433594 0.644531 18.652344 0.644531 Z M 8.632812 -12.898438 C 8.632812 -18.453125 12.550781 -22.421875 18.105469 -22.421875 C 23.710938 -22.421875 27.582031 -18.453125 27.582031 -12.898438 C 27.582031 -7.292969 23.710938 -3.375 18.105469 -3.375 C 12.550781 -3.375 8.632812 -7.292969 8.632812 -12.898438 Z M 8.632812 -12.898438 "/></g></g></g><g clip-path="url(#dd5b8c01df)"><path fill="#5114cb" d="M 35.324219 209.054688 C 34.710938 208.75 34.296875 208.101562 34.296875 207.382812 C 34.296875 202.292969 36.382812 197.671875 39.710938 194.328125 C 40.210938 193.828125 40.804688 193.304688 41.382812 192.835938 C 42.171875 193.828125 42.820312 194.921875 43.289062 196.074219 C 42.945312 196.34375 42.640625 196.648438 42.335938 196.953125 C 39.871094 199.417969 38.269531 202.707031 38.039062 206.359375 C 39.601562 207.238281 40.804688 207.796875 41.957031 207.957031 C 43.054688 208.101562 44.277344 207.886719 45.910156 207.308594 L 45.910156 201.070312 C 45.910156 197.007812 44.238281 193.304688 41.542969 190.644531 C 38.882812 187.945312 35.195312 186.3125 31.152344 186.3125 C 27.84375 186.3125 24.804688 187.40625 22.359375 189.207031 C 20.039062 190.949219 18.242188 193.324219 17.253906 196.089844 C 19.035156 199.058594 21.171875 201.828125 23.601562 204.273438 C 31.0625 211.734375 41.398438 216.335938 52.78125 216.335938 C 55.511719 216.335938 58.191406 216.066406 60.851562 215.507812 C 63.136719 215.058594 65.347656 214.410156 67.539062 213.601562 L 67.539062 207.363281 C 67.539062 203.300781 65.867188 199.632812 63.171875 196.9375 C 60.511719 194.277344 56.824219 192.605469 52.78125 192.605469 C 51.648438 192.605469 50.570312 192.746094 49.507812 192.980469 C 49.003906 191.792969 48.375 190.660156 47.636719 189.636719 C 49.273438 189.152344 50.980469 188.882812 52.78125 188.882812 C 55.636719 188.882812 58.371094 189.566406 60.796875 190.714844 C 62.328125 188.46875 64.339844 186.597656 66.660156 185.195312 C 69.429688 183.523438 72.664062 182.570312 76.097656 182.570312 C 79.785156 182.570312 83.253906 183.667969 86.148438 185.574219 C 88.054688 186.832031 89.761719 188.433594 91.09375 190.320312 C 92.960938 185.554688 93.988281 180.359375 93.988281 175.074219 C 93.988281 163.695312 89.386719 153.390625 81.925781 145.929688 C 74.460938 138.46875 64.160156 133.867188 52.78125 133.867188 C 41.398438 133.867188 31.0625 138.488281 23.601562 145.949219 C 16.140625 153.410156 11.535156 163.710938 11.535156 175.09375 C 11.535156 181.097656 12.832031 186.777344 15.113281 191.9375 C 16.371094 189.726562 18.117188 187.785156 20.167969 186.238281 C 23.277344 183.957031 27.050781 182.589844 31.167969 182.589844 C 36.257812 182.589844 40.84375 184.675781 44.1875 188 C 47.53125 191.328125 49.597656 195.984375 49.597656 201.054688 L 49.597656 208.550781 C 49.597656 209.34375 49.09375 210.042969 48.375 210.292969 C 45.550781 211.445312 43.539062 211.859375 41.488281 211.589844 C 39.511719 211.355469 37.75 210.476562 35.324219 209.054688 Z M 31.167969 162.453125 C 33.523438 162.453125 35.628906 163.40625 37.175781 164.917969 C 38.703125 166.445312 39.65625 168.601562 39.65625 170.921875 C 39.65625 173.277344 38.703125 175.378906 37.175781 176.925781 C 35.644531 178.453125 33.523438 179.40625 31.167969 179.40625 C 28.851562 179.40625 26.710938 178.453125 25.164062 176.925781 C 23.636719 175.398438 22.703125 173.277344 22.703125 170.921875 C 22.703125 168.601562 23.617188 166.460938 25.164062 164.917969 C 26.691406 163.40625 28.851562 162.453125 31.167969 162.453125 Z M 34.550781 167.523438 C 33.703125 166.679688 32.5 166.15625 31.167969 166.15625 C 29.875 166.15625 28.6875 166.660156 27.789062 167.523438 C 26.945312 168.402344 26.386719 169.609375 26.386719 170.902344 C 26.386719 172.234375 26.925781 173.421875 27.789062 174.28125 C 28.671875 175.128906 29.875 175.683594 31.167969 175.683594 C 32.5 175.683594 33.6875 175.144531 34.550781 174.28125 C 35.414062 173.421875 35.953125 172.234375 35.953125 170.902344 C 35.933594 169.609375 35.394531 168.402344 34.550781 167.523438 Z M 74.355469 162.453125 C 76.710938 162.453125 78.8125 163.40625 80.359375 164.917969 C 81.886719 166.445312 82.824219 168.601562 82.824219 170.921875 C 82.824219 173.277344 81.90625 175.378906 80.359375 176.925781 C 78.832031 178.453125 76.710938 179.40625 74.355469 179.40625 C 72 179.40625 69.894531 178.453125 68.351562 176.925781 C 66.820312 175.398438 65.867188 173.277344 65.867188 170.921875 C 65.867188 168.601562 66.820312 166.460938 68.351562 164.917969 C 69.894531 163.40625 72 162.453125 74.355469 162.453125 Z M 77.734375 167.523438 C 76.855469 166.679688 75.648438 166.15625 74.355469 166.15625 C 73.023438 166.15625 71.835938 166.660156 70.976562 167.523438 C 70.128906 168.402344 69.574219 169.609375 69.574219 170.902344 C 69.574219 172.234375 70.113281 173.421875 70.976562 174.28125 C 71.835938 175.144531 73.023438 175.683594 74.355469 175.683594 C 75.648438 175.683594 76.835938 175.144531 77.734375 174.28125 C 78.578125 173.4375 79.136719 172.234375 79.136719 170.902344 C 79.136719 169.609375 78.578125 168.402344 77.734375 167.523438 Z M 52.78125 168.621094 C 55.097656 168.621094 57.203125 169.574219 58.75 171.101562 C 60.277344 172.628906 61.230469 174.75 61.230469 177.105469 C 61.230469 179.425781 60.277344 181.527344 58.75 183.074219 C 57.222656 184.601562 55.097656 185.554688 52.78125 185.554688 C 50.425781 185.554688 48.320312 184.601562 46.773438 183.074219 C 45.246094 181.546875 44.292969 179.425781 44.292969 177.105469 C 44.292969 174.75 45.246094 172.648438 46.773438 171.101562 C 48.320312 169.574219 50.425781 168.621094 52.78125 168.621094 Z M 56.125 173.726562 C 55.277344 172.878906 54.074219 172.324219 52.78125 172.324219 C 51.449219 172.324219 50.261719 172.863281 49.398438 173.726562 C 48.519531 174.570312 47.996094 175.773438 47.996094 177.105469 C 47.996094 178.398438 48.5 179.585938 49.398438 180.449219 C 50.246094 181.332031 51.449219 181.851562 52.78125 181.851562 C 54.074219 181.851562 55.261719 181.347656 56.125 180.449219 C 57.003906 179.605469 57.527344 178.398438 57.527344 177.105469 C 57.527344 175.773438 57.003906 174.589844 56.125 173.726562 Z M 63.925781 192.675781 C 64.609375 193.179688 65.222656 193.734375 65.796875 194.3125 C 69.140625 197.65625 71.207031 202.292969 71.207031 207.363281 L 71.207031 214.863281 C 71.207031 215.707031 70.667969 216.425781 69.878906 216.640625 C 67.179688 217.773438 64.394531 218.582031 61.589844 219.160156 C 58.695312 219.734375 55.730469 220.039062 52.761719 220.039062 C 40.320312 220.039062 29.101562 214.988281 20.957031 206.878906 C 12.867188 198.753906 7.816406 187.535156 7.816406 175.09375 C 7.816406 162.6875 12.867188 151.46875 20.976562 143.324219 C 29.121094 135.214844 40.339844 130.164062 52.78125 130.164062 C 65.183594 130.164062 76.402344 135.214844 84.546875 143.324219 C 92.65625 151.46875 97.710938 162.6875 97.710938 175.09375 C 97.710938 182.121094 96.074219 188.9375 93.035156 195.066406 C 92.960938 195.175781 92.925781 195.265625 92.871094 195.371094 C 92.730469 195.605469 92.640625 195.859375 92.496094 196.089844 C 89.152344 202.472656 84.242188 208.03125 78.113281 212.21875 C 77.265625 212.792969 76.132812 212.558594 75.558594 211.734375 C 74.984375 210.886719 75.183594 209.71875 76.042969 209.144531 C 81.671875 205.296875 86.167969 200.207031 89.242188 194.347656 C 88.089844 192.0625 86.3125 190.085938 84.152344 188.683594 C 81.832031 187.191406 79.066406 186.292969 76.117188 186.292969 C 73.347656 186.292969 70.757812 187.046875 68.582031 188.378906 C 66.714844 189.476562 65.148438 190.949219 63.925781 192.675781 Z M 63.925781 192.675781 " fill-opacity="1" fill-rule="nonzero"/></g></svg>